{"title":"Pirates Of The Caribbean On Stranger Tides-AC3-XviD-DVDRip 2011","uid":6613233,"size":1781454656,"categoryP":"video","categoryS":"movies","magnet":"?xt=urn:btih:b41c23b088ad12a9f615bb3f044a3f6571430308&amp;dn=Pirates+Of+The+Caribbean+On+Stranger+Tides-AC3-XviD-DVDRip+2011&amp;tr=udp%3A%2F%2Ftracker.openbittorrent.com%3A80&amp;tr=udp%3A%2F%2Fopen.demonii.com%3A1337&amp;tr=udp%3A%2F%2Ftracker.coppersurfer.tk%3A6969&amp;tr=udp%3A%2F%2Fexodus.desync.com%3A6969","seeders":2,"leechers":0,"uploader":"FatFreddy31","files":-1,"time":1313673038,"description":"[img]http://img840.imageshack.us/img840/7425/71929.jpg[/img]\n &lt;a href=&quot;\nhttp://www.imdb.com/title/tt1298650/&quot; rel=&quot;nofollow&quot; target=&quot;_NEW&quot;&gt;\nhttp://www.imdb.com/title/tt1298650/&lt;/a&gt;\n &lt;a href=&quot;\nhttp://www.moviemeter.nl/film/71929&quot; rel=&quot;nofollow&quot; target=&quot;_NEW&quot;&gt;\nhttp://www.moviemeter.nl/film/71929&lt;/a&gt;\n\nSubs: Dutch, English (srt).\n\nGeneral\nComplete name                    : Pirates Of The Caribbean On Stranger Tides-AC3-XviD-DVDRip 2011\\Pirates Of The Caribbean On Stranger Tides-AC3-XviD-DVDRip 2011.avi\nFormat                           : AVI\nFormat/Info                      : Audio Video Interleave\nFile size                        : 1.66 GiB\nDuration                         : 2h 16mn\nOverall bit rate                 : 1 740 Kbps\nWriting application              : VirtualDubMod 1.5.4.1 (build 2178/release)\nWriting library                  : VirtualDubMod build 2178/release\n\nVideo\nID                               : 0\nFormat                           : MPEG-4 Visual\nFormat profile                   : Simple@L3\nFormat settings, BVOP            : No\nFormat settings, QPel            : No\nFormat settings, GMC             : No warppoints\nFormat settings, Matrix          : Default (H.263)\nCodec ID                         : XVID\nCodec ID/Hint                    : XviD\nDuration                         : 2h 16mn\nBit rate                         : 1 347 Kbps\nWidth                            : 720 pixels\nHeight                           : 304 pixels\nDisplay aspect ratio             : 2.35:1\nFrame rate                       : 23.976 fps\nColor space                      : YUV\nChroma subsampling               : 4:2:0\nBit depth                        : 8 bits\nScan type                        : Progressive\nCompression mode                 : Lossy\nBits/(Pixel*Frame)               : 0.257\nStream size                      : 1.28 GiB (77%)\nWriting library                  : XviD 1.1.2 (UTC 2006-11-01)\n\nAudio\nID                               : 1\nFormat                           : AC-3\nFormat/Info                      : Audio Coding 3\nMode extension                   : CM (complete main)\nCodec ID                         : 2000\nDuration                         : 2h 16mn\nBit rate mode                    : Constant\nBit rate                         : 384 Kbps\nChannel(s)                       : 6 channels\nChannel positions                : Front: L C R, Side: L R, LFE\nSampling rate                    : 48.0 KHz\nBit depth                        : 16 bits\nCompression mode                 : Lossy\nStream size                      : 375 MiB (22%)\nAlignment                        : Split accross interleaves\nInterleave, duration             : 42 ms (1.00 video frame)\nInterleave, preload duration     : 500 ms\n\n[img]http://img705.imageshack.us/img705/7082/piratesofthecaribbeanona.jpg[/img]","torrent":{"xt":"urn:btih:b41c23b088ad12a9f615bb3f044a3f6571430308","amp;dn":"Pirates+Of+The+Caribbean+On+Stranger+Tides-AC3-XviD-DVDRip+2011","amp;tr":["udp%3A%2F%2Ftracker.openbittorrent.com%3A80","udp%3A%2F%2Fopen.demonii.com%3A1337","udp%3A%2F%2Ftracker.coppersurfer.tk%3A6969","udp%3A%2F%2Fexodus.desync.com%3A6969"],"infoHash":"b41c23b088ad12a9f615bb3f044a3f6571430308","infoHashBuffer":{"type":"Buffer","data":[180,28,35,176,136,173,18,169,246,21,187,63,4,74,63,101,113,67,3,8]},"announce":[],"urlList":[]}}